<svg xmlns="http://www.w3.org/2000/svg" width="37.798" height="22.124" viewBox="0 0 37.798 22.124">
  <path id="VK_1_" d="M180.533,362.059a1.708,1.708,0,0,0-.117-.539,5.07,5.07,0,0,0-.579-1,31.222,31.222,0,0,0-2.52-2.979,37.142,37.142,0,0,1-3.136-3.338c-.157-.448-.207-.647.238-1.252s1.42-2.131,2.181-3.229c.478-.688.912-1.408,1.34-2.128a25.842,25.842,0,0,0,1.386-2.618,1.789,1.789,0,0,0,.233-1.221.8.8,0,0,0-.562-.643,2.387,2.387,0,0,0-.538-.045h-2.386c-.312,0-.624,0-.935,0s-.642,0-.961.025a1.341,1.341,0,0,0-.96.741c-.279.431-.533.88-.8,1.317q-.278.448-.544.9c-.278.473-.564.941-.851,1.409-.119.194-.238.388-.355.583-.336.56-3.248,4.391-3.831,4.547s-.784.112-.784-1.075v-7.93a.556.556,0,0,0-.538-.52h-7.493s-1.109,0-.717,1,1.551,1.3,1.551,2.963v6.519s-.2,1.462-1.462.252a16.457,16.457,0,0,1-2.545-3.249,25.264,25.264,0,0,1-1.9-3.8c-.155-.378-.308-.757-.468-1.133-.166-.393-.331-.787-.49-1.182-.185-.46-.383-1.061-.882-1.272a2.01,2.01,0,0,0-.8-.1c-.991,0-1.983,0-2.974,0h-.873c-.687,0-1.541-.019-1.7.839a3.046,3.046,0,0,0,.249,1.484c.071.21.158.413.237.619a31.555,31.555,0,0,0,1.412,3.068,38.744,38.744,0,0,0,4.154,6.785,22.684,22.684,0,0,0,6.07,5.53,11.514,11.514,0,0,0,2.069.945c2.778.941,5.824.851,6.765.224s-.179-4.749.672-5.242,2.375.582,3.495,1.568,1.971,1.837,2.6,2.509a5.715,5.715,0,0,0,1.181,1.223,5.878,5.878,0,0,0,2.921.444c.527,0,1.054,0,1.58,0,.356,0,.712.007,1.068-.01C179.812,363.021,180.577,362.79,180.533,362.059Z" transform="translate(-143.737 -342.064)" fill="none" stroke="#fff" stroke-width="2"/>
</svg>
