<svg id="settings" xmlns="http://www.w3.org/2000/svg" width="42" height="42" viewBox="0 0 42 42">
  <circle id="Ellipse_9" data-name="Ellipse 9" cx="5.455" cy="5.455" r="5.455" transform="translate(15.545 15.545)" stroke-width="2" stroke="#fff" stroke-linecap="round" stroke-linejoin="round" fill="none"/>
  <path id="Path_30" data-name="Path 30" d="M34.455,26.455a3,3,0,0,0,.6,3.309l.109.109a3.638,3.638,0,1,1-5.145,5.145l-.109-.109a3.024,3.024,0,0,0-5.127,2.145v.309a3.636,3.636,0,0,1-7.273,0V37.2a3,3,0,0,0-1.964-2.745,3,3,0,0,0-3.309.6l-.109.109a3.638,3.638,0,1,1-5.145-5.145l.109-.109a3.024,3.024,0,0,0-2.145-5.127H4.636a3.636,3.636,0,0,1,0-7.273H4.8a3,3,0,0,0,2.745-1.964,3,3,0,0,0-.6-3.309l-.109-.109a3.638,3.638,0,1,1,5.145-5.145l.109.109a3,3,0,0,0,3.309.6h.145a3,3,0,0,0,1.818-2.745V4.636a3.636,3.636,0,0,1,7.273,0V4.8a3.024,3.024,0,0,0,5.127,2.145l.109-.109a3.638,3.638,0,1,1,5.145,5.145l-.109.109a3,3,0,0,0-.6,3.309v.145a3,3,0,0,0,2.745,1.818h.309a3.636,3.636,0,1,1,0,7.273H37.2A3,3,0,0,0,34.455,26.455Z" fill="none" stroke="#fff" stroke-linecap="round" stroke-linejoin="round" stroke-width="2"/>
</svg>
