<svg id="Whatsapp_logo" xmlns="http://www.w3.org/2000/svg" width="22.438" height="22.612" viewBox="0 0 22.438 22.612">
  <g id="Group_31" data-name="Group 31">
    <g id="Group_30" data-name="Group 30">
      <path id="Path_43" data-name="Path 43" d="M11.423,0A11.017,11.017,0,0,0,1.988,16.7L0,22.612l6.1-1.953A11.016,11.016,0,1,0,11.423,0Zm0,20.275a9.206,9.206,0,0,1-5.1-1.532l-3.559,1.14,1.157-3.439a9.258,9.258,0,1,1,7.5,3.831Z" fill="#fff" fill-rule="evenodd"/>
    </g>
  </g>
  <path id="Path_44" data-name="Path 44" d="M64.219,61.321c-.178-.43-.315-.445-.591-.458-.095,0-.2-.009-.309-.009a1.341,1.341,0,0,0-.945.332,2.956,2.956,0,0,0-.945,2.252,5.253,5.253,0,0,0,1.1,2.793,11.577,11.577,0,0,0,4.613,4.076c2.127.881,2.759.8,3.245.7a2.623,2.623,0,0,0,1.818-1.3,2.256,2.256,0,0,0,.158-1.283c-.068-.113-.248-.18-.518-.315s-1.6-.788-1.845-.878a.521.521,0,0,0-.667.2,11.112,11.112,0,0,1-.725.959.582.582,0,0,1-.656.1,6.863,6.863,0,0,1-2.172-1.34,8.132,8.132,0,0,1-1.5-1.87c-.158-.27-.014-.431.108-.578.138-.168.266-.288.4-.446a1.806,1.806,0,0,0,.3-.422.553.553,0,0,0-.038-.5C64.984,63.19,64.443,61.861,64.219,61.321Z" transform="translate(-55.38 -54.862)" fill="#fff" fill-rule="evenodd"/>
</svg>
