<svg xmlns="http://www.w3.org/2000/svg" width="22" height="16.054" viewBox="0 0 22 16.054">
  <g id="youtube" transform="translate(0.001 -3)">
    <path id="Path_16" data-name="Path 16" d="M20.581,6.2a2.527,2.527,0,0,0-1.764-1.818A65.463,65.463,0,0,0,11,4s-6.254,0-7.818.418A2.527,2.527,0,0,0,1.418,6.236,26.362,26.362,0,0,0,1,11.045a26.362,26.362,0,0,0,.418,4.845,2.527,2.527,0,0,0,1.764,1.745c1.564.418,7.818.418,7.818.418s6.254,0,7.818-.418a2.527,2.527,0,0,0,1.764-1.818A26.362,26.362,0,0,0,21,11.045,26.363,26.363,0,0,0,20.581,6.2Z" fill="none" stroke="#fff" stroke-linecap="round" stroke-linejoin="round" stroke-width="2"/>
    <path id="Path_17" data-name="Path 17" d="M9.75,14.425l5.227-2.973L9.75,8.48Z" transform="translate(-0.796 -0.407)" fill="none" stroke="#fff" stroke-linecap="round" stroke-linejoin="round" stroke-width="2"/>
  </g>
</svg>
